<?xml version="1.0" encoding="iso-8859-1"?>
<!-- Generator: Adobe Illustrator 17.1.0, SVG Export Plug-In . SVG Version: 6.00 Build 0)  -->
<!DOCTYPE svg PUBLIC "-//W3C//DTD SVG 1.1//EN" "http://www.w3.org/Graphics/SVG/1.1/DTD/svg11.dtd">
<svg version="1.1" id="Capa_1" xmlns="http://www.w3.org/2000/svg" xmlns:xlink="http://www.w3.org/1999/xlink" x="0px" y="0px"
	 viewBox="0 0 100 100" style="enable-background:new 0 0 100 100;" xml:space="preserve">
<g>
	<path style="fill:#000100;" d="M19.467,67.757l7.244-7.244c-4.067-2.457-7.762-5.553-10.909-9.212
		c4.769-5.546,10.793-9.807,17.475-12.488c-1.026,2.288-1.61,4.818-1.61,7.488c0,2.712,0.604,5.278,1.661,7.594l5.85-5.849
		c-0.931-0.914-1.511-2.183-1.511-3.591c0-2.781,2.255-5.036,5.036-5.036c1.407,0,2.677,0.58,3.59,1.511l5.316-5.316l5.986-5.985
		l3.001-3.002C57.131,25.943,53.587,25.57,50,25.57c-17.592,0-34.27,8.522-44.614,22.797L3.26,51.301l2.126,2.934
		C9.278,59.606,14.069,64.162,19.467,67.757z"/>
	<path style="fill:#000100;" d="M78.294,33.443l-7.329,7.329c4.99,2.626,9.496,6.184,13.233,10.529
		C75.674,61.213,63.148,67.032,50,67.032c-1.683,0-3.355-0.098-5.01-0.285l-8.558,8.558C40.828,76.43,45.38,77.032,50,77.032
		c17.592,0,34.271-8.522,44.614-22.798l2.126-2.934l-2.126-2.934C90.192,42.266,84.607,37.226,78.294,33.443z"/>
	<path style="fill:#000100;" d="M50,64.634c10.125,0,18.333-8.208,18.333-18.333c0-0.913-0.089-1.803-0.218-2.68L47.32,64.417
		C48.197,64.546,49.087,64.634,50,64.634z"/>
	<path style="fill:#000100;" d="M43.916,63.579l23.362-23.362l0.816-0.816l7.483-7.483L89.754,17.74
		c2.213-2.213,2.213-5.801,0-8.014c-1.106-1.106-2.557-1.66-4.007-1.66s-2.901,0.553-4.007,1.66L64.039,27.428l-3.721,3.721
		l-4.779,4.779l-7.866,7.866l-5.63,5.63l-7.194,7.194l-5.411,5.411l-7.362,7.362L10.604,80.862c-2.213,2.213-2.213,5.801,0,8.014
		c1.106,1.106,2.557,1.66,4.007,1.66s2.901-0.553,4.007-1.66L33.144,74.35l8.184-8.184L43.916,63.579z"/>
</g>
</svg>
