<?xml version="1.0" encoding="UTF-8" standalone="no"?>
<!-- Generator: Adobe Illustrator 16.0.0, SVG Export Plug-In . SVG Version: 6.00 Build 0)  -->

<svg
   xmlns:osb="http://www.openswatchbook.org/uri/2009/osb"
   xmlns:dc="http://purl.org/dc/elements/1.1/"
   xmlns:cc="http://creativecommons.org/ns#"
   xmlns:rdf="http://www.w3.org/1999/02/22-rdf-syntax-ns#"
   xmlns:svg="http://www.w3.org/2000/svg"
   xmlns="http://www.w3.org/2000/svg"
   xmlns:sodipodi="http://sodipodi.sourceforge.net/DTD/sodipodi-0.dtd"
   xmlns:inkscape="http://www.inkscape.org/namespaces/inkscape"
   version="1.1"
   id="Layer_1"
   x="0px"
   y="0px"
   width="126px"
   height="126px"
   viewBox="0 0 126 126"
   enable-background="new 0 0 126 126"
   xml:space="preserve"
   inkscape:version="0.48.4 r9939"
   sodipodi:docname="mask.svg"
   inkscape:export-filename="/home/jens/VCS/bachelorarbeit_implementierung/Resources/mask.png"
   inkscape:export-xdpi="22.860001"
   inkscape:export-ydpi="22.860001"><metadata
     id="metadata9"><rdf:RDF><cc:Work
         rdf:about=""><dc:format>image/svg+xml</dc:format><dc:type
           rdf:resource="http://purl.org/dc/dcmitype/StillImage" /><dc:title></dc:title></cc:Work></rdf:RDF></metadata><defs
     id="defs7"><linearGradient
       id="linearGradient5210"
       osb:paint="solid"><stop
         style="stop-color:#000000;stop-opacity:1;"
         offset="0"
         id="stop5212" /></linearGradient><linearGradient
       id="linearGradient3764"><stop
         id="stop3766"
         offset="0"
         style="stop-color:#000000;stop-opacity:1;" /><stop
         style="stop-color:#00f700;stop-opacity:0.49803922;"
         offset="0.5"
         id="stop3770" /><stop
         id="stop3768"
         offset="1"
         style="stop-color:#000000;stop-opacity:0;" /></linearGradient></defs><sodipodi:namedview
     pagecolor="#ffffff"
     bordercolor="#666666"
     borderopacity="1"
     objecttolerance="10"
     gridtolerance="10"
     guidetolerance="10"
     inkscape:pageopacity="0"
     inkscape:pageshadow="2"
     inkscape:window-width="1366"
     inkscape:window-height="748"
     id="namedview5"
     showgrid="false"
     inkscape:zoom="2.6488444"
     inkscape:cx="63.346824"
     inkscape:cy="56.358477"
     inkscape:window-x="-3"
     inkscape:window-y="-3"
     inkscape:window-maximized="1"
     inkscape:current-layer="Layer_1" /><path
     clip-rule="evenodd"
     d="M 111.092,62.375323 C 110.89732,55.812979 108.27921,50.412024 103.20687,46.255651 98.501416,42.402104 92.954871,40.331405 87.113819,38.975343 79.201237,37.137587 71.152216,36.648406 63.05827,36.670037 c -2.41429,0.06489 -4.827748,0.05657 -7.244534,0.166388 -4.697134,0.212977 -9.359327,0.648913 -13.974931,1.529106 -6.187971,1.178859 -12.132183,3.013287 -17.377566,6.663008 -4.964186,3.455048 -8.151349,8.067324 -9.187946,14.085579 -0.854403,4.955867 -0.226288,9.771137 1.475861,14.454128 2.270365,6.246206 6.588966,10.500748 12.789416,12.857635 4.222928,1.605644 8.615572,2.089001 13.108049,2.137254 4.583158,0.05075 8.608917,-1.318625 12.17794,-4.17218 1.806974,-1.44508 3.394315,-3.146398 5.28282,-4.491645 1.975857,-1.408474 3.629754,-1.435096 5.653033,-0.09817 1.38934,0.918462 2.575686,2.081515 3.804462,3.190491 3.004136,2.710461 6.321081,4.853539 10.436689,5.33024 5.316098,0.615636 10.544841,0.11564 15.631323,-1.590669 6.049034,-2.027438 10.483274,-5.877657 13.088914,-11.738676 1.78368,-4.012447 2.49998,-8.239535 2.3702,-12.617204 z m -70.219077,9.215401 c -6.793624,0 -12.298571,-6.494957 -12.298571,-6.494957 0,0 5.504947,-6.494956 12.298571,-6.494956 6.791959,0 12.296907,6.494956 12.296907,6.494956 0,0 -5.504948,6.494957 -12.296907,6.494957 z m 46.429747,0 c -6.79196,0 -12.298571,-6.494957 -12.298571,-6.494957 0,0 5.506611,-6.494956 12.298571,-6.494956 6.791959,0 12.298571,6.494956 12.298571,6.494956 0,0 -5.506612,6.494957 -12.298571,6.494957 z"
     id="path3"
     style="opacity:0.87859425000000002;fill:#000000;fill-opacity:0.50196078000000000;fill-rule:evenodd;stroke:#000000;stroke-width:2.26;stroke-linecap:butt;stroke-linejoin:bevel;stroke-miterlimit:4;stroke-opacity:0.21993127000000001;stroke-dasharray:none;marker-start:none;marker-mid:none"
     inkscape:connector-curvature="0" /></svg>