<?xml version="1.0" encoding="UTF-8" standalone="no"?>
<!-- Generator: Adobe Illustrator 17.1.0, SVG Export Plug-In . SVG Version: 6.00 Build 0)  -->

<svg
   xmlns:dc="http://purl.org/dc/elements/1.1/"
   xmlns:cc="http://creativecommons.org/ns#"
   xmlns:rdf="http://www.w3.org/1999/02/22-rdf-syntax-ns#"
   xmlns:svg="http://www.w3.org/2000/svg"
   xmlns="http://www.w3.org/2000/svg"
   xmlns:sodipodi="http://sodipodi.sourceforge.net/DTD/sodipodi-0.dtd"
   xmlns:inkscape="http://www.inkscape.org/namespaces/inkscape"
   version="1.1"
   id="Capa_1"
   x="0px"
   y="0px"
   viewBox="0 0 100 100"
   style="enable-background:new 0 0 100 100;"
   xml:space="preserve"
   inkscape:version="0.48.4 r9939"
   width="100%"
   height="100%"
   sodipodi:docname="view8.svg"><metadata
     id="metadata11"><rdf:RDF><cc:Work
         rdf:about=""><dc:format>image/svg+xml</dc:format><dc:type
           rdf:resource="http://purl.org/dc/dcmitype/StillImage" /></cc:Work></rdf:RDF></metadata><defs
     id="defs9" /><sodipodi:namedview
     pagecolor="#ffffff"
     bordercolor="#666666"
     borderopacity="1"
     objecttolerance="10"
     gridtolerance="10"
     guidetolerance="10"
     inkscape:pageopacity="0"
     inkscape:pageshadow="2"
     inkscape:window-width="1259"
     inkscape:window-height="636"
     id="namedview7"
     showgrid="false"
     inkscape:zoom="2.36"
     inkscape:cx="50"
     inkscape:cy="50.399067"
     inkscape:window-x="0"
     inkscape:window-y="0"
     inkscape:window-maximized="0"
     inkscape:current-layer="Capa_1" /><g
     id="g3"
     transform="translate(0,2)"><path
       style="fill:#000100"
       d="m 50,23.483 c -17.592,0 -34.271,8.522 -44.614,22.798 L 3.26,49.215 5.386,52.149 C 15.729,66.424 32.408,74.946 50,74.946 c 17.592,0 34.271,-8.522 44.614,-22.798 L 96.74,49.214 94.614,46.28 C 84.271,32.006 67.592,23.483 50,23.483 z m 13.738,18.886 c 0,2.781 -2.254,5.036 -5.036,5.036 -2.782,0 -5.036,-2.255 -5.036,-5.036 0,-2.781 2.255,-5.036 5.036,-5.036 2.781,0 5.036,2.255 5.036,5.036 z M 50,64.946 c -13.148,0 -25.674,-5.819 -34.198,-15.731 4.77,-5.546 10.793,-9.808 17.476,-12.489 -1.026,2.288 -1.611,4.818 -1.611,7.489 0,10.125 8.208,18.333 18.333,18.333 10.125,0 18.333,-8.208 18.333,-18.333 0,-2.671 -0.584,-5.2 -1.611,-7.489 6.683,2.681 12.706,6.943 17.476,12.489 C 75.674,59.127 63.148,64.946 50,64.946 z"
       id="path5"
       inkscape:connector-curvature="0" /></g></svg>